<?xml version="1.0" encoding="UTF-8" standalone="no"?>
<!-- Created with Inkscape (http://www.inkscape.org/) -->

<svg
   width="514"
   height="514"
   viewBox="0 0 135.99584 135.99583"
   version="1.1"
   id="svg5"
   xml:space="preserve"
   inkscape:version="1.2 (dc2aeda, 2022-05-15)"
   sodipodi:docname="instagram_icon.svg"
   xmlns:inkscape="http://www.inkscape.org/namespaces/inkscape"
   xmlns:sodipodi="http://sodipodi.sourceforge.net/DTD/sodipodi-0.dtd"
   xmlns:xlink="http://www.w3.org/1999/xlink"
   xmlns="http://www.w3.org/2000/svg"
   xmlns:svg="http://www.w3.org/2000/svg"><sodipodi:namedview
     id="namedview7"
     pagecolor="#ffffff"
     bordercolor="#000000"
     borderopacity="0.25"
     inkscape:showpageshadow="2"
     inkscape:pageopacity="0.0"
     inkscape:pagecheckerboard="0"
     inkscape:deskcolor="#d1d1d1"
     inkscape:document-units="mm"
     showgrid="false"
     inkscape:zoom="0.2102413"
     inkscape:cx="449.48352"
     inkscape:cy="756.27386"
     inkscape:window-width="1309"
     inkscape:window-height="750"
     inkscape:window-x="0"
     inkscape:window-y="25"
     inkscape:window-maximized="0"
     inkscape:current-layer="layer1" /><defs
     id="defs2"><radialGradient
       fy="578.08801"
       fx="158.429"
       gradientTransform="matrix(0,-1.98198,1.8439,0,-1031.399,454.004)"
       gradientUnits="userSpaceOnUse"
       xlink:href="#a"
       r="65"
       cy="578.08801"
       cx="158.429"
       id="c" /><radialGradient
       fy="473.45499"
       fx="147.694"
       gradientTransform="matrix(0.17394,0.86872,-3.5818,0.71718,1648.351,-458.493)"
       gradientUnits="userSpaceOnUse"
       xlink:href="#b"
       r="65"
       cy="473.45499"
       cx="147.694"
       id="d" /><linearGradient
       id="b"><stop
         stop-color="#3771c8"
         offset="0"
         id="stop11" /><stop
         offset=".128"
         stop-color="#3771c8"
         id="stop13" /><stop
         stop-opacity="0"
         stop-color="#60f"
         offset="1"
         id="stop15" /></linearGradient><linearGradient
       id="a"><stop
         stop-color="#fd5"
         offset="0"
         id="stop18" /><stop
         stop-color="#fd5"
         offset=".1"
         id="stop20" /><stop
         stop-color="#ff543e"
         offset=".5"
         id="stop22" /><stop
         stop-color="#c837ab"
         offset="1"
         id="stop24" /></linearGradient></defs><g
     inkscape:label="Layer 1"
     inkscape:groupmode="layer"
     id="layer1"><g
       id="g53"
       transform="matrix(1.0418554,0,0,1.0418554,1.158761,0.86020335)"><path
         d="M 65.033,0 C 37.891,0 29.953,0.028 28.41,0.156 c -5.57,0.463 -9.036,1.34 -12.812,3.22 -2.91,1.445 -5.205,3.12 -7.47,5.468 -4.125,4.282 -6.625,9.55 -7.53,15.812 -0.44,3.04 -0.568,3.66 -0.594,19.188 -0.01,5.176 0,11.988 0,21.125 0,27.12 0.03,35.05 0.16,36.59 0.45,5.42 1.3,8.83 3.1,12.56 3.44,7.14 10.01,12.5 17.75,14.5 2.68,0.69 5.64,1.07 9.44,1.25 1.61,0.07 18.02,0.12 34.44,0.12 16.42,0 32.84,-0.02 34.41,-0.1 4.4,-0.207 6.955,-0.55 9.78,-1.28 a 27.22,27.22 0 0 0 17.75,-14.53 c 1.765,-3.64 2.66,-7.18 3.065,-12.317 0.088,-1.12 0.125,-18.977 0.125,-36.81 0,-17.836 -0.04,-35.66 -0.128,-36.78 -0.41,-5.22 -1.305,-8.73 -3.127,-12.44 -1.495,-3.037 -3.155,-5.305 -5.565,-7.624 C 116.904,4 111.644,1.5 105.375,0.596 102.338,0.157 101.733,0.027 86.193,0 Z"
         fill="url(#c)"
         id="path29"
         style="fill:url(#c)" /><path
         d="M 65.033,0 C 37.891,0 29.953,0.028 28.41,0.156 c -5.57,0.463 -9.036,1.34 -12.812,3.22 -2.91,1.445 -5.205,3.12 -7.47,5.468 -4.125,4.282 -6.625,9.55 -7.53,15.812 -0.44,3.04 -0.568,3.66 -0.594,19.188 -0.01,5.176 0,11.988 0,21.125 0,27.12 0.03,35.05 0.16,36.59 0.45,5.42 1.3,8.83 3.1,12.56 3.44,7.14 10.01,12.5 17.75,14.5 2.68,0.69 5.64,1.07 9.44,1.25 1.61,0.07 18.02,0.12 34.44,0.12 16.42,0 32.84,-0.02 34.41,-0.1 4.4,-0.207 6.955,-0.55 9.78,-1.28 a 27.22,27.22 0 0 0 17.75,-14.53 c 1.765,-3.64 2.66,-7.18 3.065,-12.317 0.088,-1.12 0.125,-18.977 0.125,-36.81 0,-17.836 -0.04,-35.66 -0.128,-36.78 -0.41,-5.22 -1.305,-8.73 -3.127,-12.44 -1.495,-3.037 -3.155,-5.305 -5.565,-7.624 C 116.904,4 111.644,1.5 105.375,0.596 102.338,0.157 101.733,0.027 86.193,0 Z"
         fill="url(#d)"
         id="path31"
         style="fill:url(#d)" /><path
         d="m 65.003,17 c -13.036,0 -14.672,0.057 -19.792,0.29 -5.11,0.234 -8.598,1.043 -11.65,2.23 -3.157,1.226 -5.835,2.866 -8.503,5.535 -2.67,2.668 -4.31,5.346 -5.54,8.502 -1.19,3.053 -2,6.542 -2.23,11.65 C 17.06,50.327 17,51.964 17,65 c 0,13.036 0.058,14.667 0.29,19.787 0.235,5.11 1.044,8.598 2.23,11.65 1.227,3.157 2.867,5.835 5.536,8.503 2.667,2.67 5.345,4.314 8.5,5.54 3.054,1.187 6.543,1.996 11.652,2.23 5.12,0.233 6.755,0.29 19.79,0.29 13.037,0 14.668,-0.057 19.788,-0.29 5.11,-0.234 8.602,-1.043 11.656,-2.23 3.156,-1.226 5.83,-2.87 8.497,-5.54 2.67,-2.668 4.31,-5.346 5.54,-8.502 1.18,-3.053 1.99,-6.542 2.23,-11.65 0.23,-5.12 0.29,-6.752 0.29,-19.788 0,-13.036 -0.06,-14.672 -0.29,-19.792 -0.24,-5.11 -1.05,-8.598 -2.23,-11.65 -1.23,-3.157 -2.87,-5.835 -5.54,-8.503 -2.67,-2.67 -5.34,-4.31 -8.5,-5.535 -3.06,-1.187 -6.55,-1.996 -11.66,-2.23 C 79.659,17.057 78.029,17 64.989,17 Z m -4.306,8.65 c 1.278,-0.002 2.704,0 4.306,0 12.816,0 14.335,0.046 19.396,0.276 4.68,0.214 7.22,0.996 8.912,1.653 2.24,0.87 3.837,1.91 5.516,3.59 1.68,1.68 2.72,3.28 3.592,5.52 0.657,1.69 1.44,4.23 1.653,8.91 0.23,5.06 0.28,6.58 0.28,19.39 0,12.81 -0.05,14.33 -0.28,19.39 -0.214,4.68 -0.996,7.22 -1.653,8.91 -0.87,2.24 -1.912,3.835 -3.592,5.514 -1.68,1.68 -3.275,2.72 -5.516,3.59 -1.69,0.66 -4.232,1.44 -8.912,1.654 -5.06,0.23 -6.58,0.28 -19.396,0.28 -12.817,0 -14.336,-0.05 -19.396,-0.28 -4.68,-0.216 -7.22,-0.998 -8.913,-1.655 -2.24,-0.87 -3.84,-1.91 -5.52,-3.59 -1.68,-1.68 -2.72,-3.276 -3.592,-5.517 -0.657,-1.69 -1.44,-4.23 -1.653,-8.91 -0.23,-5.06 -0.276,-6.58 -0.276,-19.398 0,-12.818 0.046,-14.33 0.276,-19.39 0.214,-4.68 0.996,-7.22 1.653,-8.912 0.87,-2.24 1.912,-3.84 3.592,-5.52 1.68,-1.68 3.28,-2.72 5.52,-3.592 1.692,-0.66 4.233,-1.44 8.913,-1.655 4.428,-0.2 6.144,-0.26 15.09,-0.27 z m 29.928,7.97 a 5.76,5.76 0 1 0 5.76,5.758 c 0,-3.18 -2.58,-5.76 -5.76,-5.76 z m -25.622,6.73 c -13.613,0 -24.65,11.037 -24.65,24.65 0,13.613 11.037,24.645 24.65,24.645 C 78.616,89.645 89.65,78.613 89.65,65 89.65,51.387 78.615,40.35 65.002,40.35 Z m 0,8.65 c 8.836,0 16,7.163 16,16 0,8.836 -7.164,16 -16,16 -8.837,0 -16,-7.164 -16,-16 0,-8.837 7.163,-16 16,-16 z"
         fill="#ffffff"
         id="path33" /></g></g></svg>
