<?xml version="1.0" encoding="UTF-8" standalone="no"?>
<svg
   id="Apple"
   viewBox="0 0 514 514"
   version="1.1"
   sodipodi:docname="tiktok_icon.svg"
   width="514"
   height="514"
   inkscape:version="1.2 (dc2aeda, 2022-05-15)"
   xml:space="preserve"
   xmlns:inkscape="http://www.inkscape.org/namespaces/inkscape"
   xmlns:sodipodi="http://sodipodi.sourceforge.net/DTD/sodipodi-0.dtd"
   xmlns="http://www.w3.org/2000/svg"
   xmlns:svg="http://www.w3.org/2000/svg"><sodipodi:namedview
     id="namedview373"
     pagecolor="#ffffff"
     bordercolor="#000000"
     borderopacity="0.25"
     inkscape:showpageshadow="2"
     inkscape:pageopacity="0.0"
     inkscape:pagecheckerboard="0"
     inkscape:deskcolor="#d1d1d1"
     showgrid="false"
     inkscape:zoom="0.31949576"
     inkscape:cx="-161.1915"
     inkscape:cy="262.91429"
     inkscape:window-width="1309"
     inkscape:window-height="456"
     inkscape:window-x="0"
     inkscape:window-y="25"
     inkscape:window-maximized="0"
     inkscape:current-layer="Apple"
     showguides="true"><sodipodi:guide
       position="592.27119,28.033898"
       orientation="0,-1"
       id="guide441"
       inkscape:locked="false" /><sodipodi:guide
       position="459.9322,119.15254"
       orientation="0,-1"
       id="guide443"
       inkscape:locked="false" /><sodipodi:guide
       position="403.52542,258"
       orientation="0,-1"
       id="guide445"
       inkscape:locked="false" /></sodipodi:namedview><defs
     id="defs358"><style
       id="style356">.cls-1{fill:#00f6ef;}.cls-2{fill:#fff;}.cls-3{fill:#ff004f;}</style></defs><rect
     height="511.37115"
     rx="85.225029"
     width="512.6319"
     x="1.9987106"
     y="4.8595939"
     id="rect360"
     style="stroke-width:1.19635" /><path
     class="cls-1"
     d="M 418.09808,218.70656 V 150.51498 C 328.74057,146.75112 325.8658,65.750479 325.8658,58.139117 v -0.573539 h -69.06641 v 265.585102 0 a 54.692548,54.558042 0 1 1 -38.76154,-52.22803 v -70.33041 a 125.25622,124.94819 0 0 0 -15.95498,-1.01564 123.87873,123.57408 0 1 0 123.87875,123.57408 c 0,-1.73257 0,-3.45319 -0.11979,-5.16186 v -130.7792 c 31.80218,29.02356 92.25625,31.49694 92.25625,31.49694 z"
     id="path362"
     style="stroke-width:1.19635" /><path
     class="cls-2"
     d="M 438.4371,235.53042 V 167.30299 C 349.06762,163.53912 346.20482,82.538488 346.20482,74.927126 v -0.573539 h -69.06643 v 265.585103 0 a 54.692548,54.558042 0 1 1 -38.7615,-52.21608 v -70.34236 a 125.25622,124.94819 0 0 0 -15.99093,-0.96786 123.87873,123.57408 0 1 0 123.91468,123.5263 c 0,-1.73257 0,-3.4532 -0.11978,-5.16187 V 203.99764 c 31.80217,29.02354 92.25624,31.53278 92.25624,31.53278 z"
     id="path364"
     style="stroke-width:1.19635" /><path
     class="cls-3"
     d="m 327.57867,74.353587 c 3.32995,18.090423 13.05628,46.373133 41.40871,62.922163 -21.6686,-25.17603 -22.75861,-57.664709 -22.75861,-62.348624 v -0.573539 z"
     id="path366"
     style="stroke-width:1.19635" /><path
     class="cls-3"
     d="m 438.4371,235.53042 v -68.22743 a 127.52013,127.20651 0 0 1 -20.36297,-2.38975 v 53.70968 c 0,0 -60.45408,-2.47339 -92.2323,-31.49693 v 130.74334 c 0.0719,1.70867 0.11979,3.4293 0.11979,5.16186 A 123.89073,123.58603 0 0 1 133.44768,425.91003 123.86676,123.56214 0 0 0 346.30064,339.93869 c 0,-1.73257 0,-3.4532 -0.11978,-5.16187 V 203.99764 c 31.80217,29.02354 92.25624,31.53278 92.25624,31.53278 z"
     id="path368"
     style="stroke-width:1.19635" /><path
     class="cls-3"
     d="m 218.03785,270.81511 a 54.728482,54.593888 0 0 0 -39.75568,101.38523 54.728482,54.593888 0 0 1 60.09472,-84.47773 v -70.34236 a 125.25622,124.94819 0 0 0 -15.99093,-0.96786 c -1.4733,0 -2.92268,0 -4.38403,0.0836 z"
     id="path370"
     style="stroke-width:1.19635" /></svg>
